<mxfile host="Electron" agent="Mozilla/5.0 (Windows NT 10.0; Win64; x64) AppleWebKit/537.36 (KHTML, like Gecko) draw.io/24.7.5 Chrome/126.0.6478.183 Electron/31.3.0 Safari/537.36" version="24.7.5">
  <diagram name="Страница — 1" id="jIpAIb4nM6Xtgf19QAbd">
    <mxGraphModel dx="1050" dy="621" grid="1" gridSize="10" guides="1" tooltips="1" connect="1" arrows="1" fold="1" page="1" pageScale="1" pageWidth="827" pageHeight="1169" math="0" shadow="0">
      <root>
        <mxCell id="0" />
        <mxCell id="1" parent="0" />
        <mxCell id="h7wWkKV2IdfDdinxVuKd-7" value="" style="edgeStyle=orthogonalEdgeStyle;rounded=0;orthogonalLoop=1;jettySize=auto;html=1;" edge="1" parent="1" source="h7wWkKV2IdfDdinxVuKd-4" target="h7wWkKV2IdfDdinxVuKd-5">
          <mxGeometry relative="1" as="geometry" />
        </mxCell>
        <mxCell id="h7wWkKV2IdfDdinxVuKd-4" value="Начало" style="ellipse;whiteSpace=wrap;html=1;" vertex="1" parent="1">
          <mxGeometry x="320" width="120" height="80" as="geometry" />
        </mxCell>
        <mxCell id="h7wWkKV2IdfDdinxVuKd-11" value="" style="edgeStyle=orthogonalEdgeStyle;rounded=0;orthogonalLoop=1;jettySize=auto;html=1;" edge="1" parent="1" source="h7wWkKV2IdfDdinxVuKd-5">
          <mxGeometry relative="1" as="geometry">
            <mxPoint x="380" y="240" as="targetPoint" />
          </mxGeometry>
        </mxCell>
        <mxCell id="h7wWkKV2IdfDdinxVuKd-13" value="" style="edgeStyle=orthogonalEdgeStyle;rounded=0;orthogonalLoop=1;jettySize=auto;html=1;" edge="1" parent="1" source="h7wWkKV2IdfDdinxVuKd-5" target="h7wWkKV2IdfDdinxVuKd-12">
          <mxGeometry relative="1" as="geometry" />
        </mxCell>
        <mxCell id="h7wWkKV2IdfDdinxVuKd-5" value="Ввод a, b, c" style="shape=parallelogram;perimeter=parallelogramPerimeter;whiteSpace=wrap;html=1;fixedSize=1;" vertex="1" parent="1">
          <mxGeometry x="320" y="120" width="120" height="60" as="geometry" />
        </mxCell>
        <mxCell id="h7wWkKV2IdfDdinxVuKd-12" value="sum = a + b + c" style="rounded=0;whiteSpace=wrap;html=1;" vertex="1" parent="1">
          <mxGeometry x="320" y="240" width="120" height="60" as="geometry" />
        </mxCell>
        <mxCell id="h7wWkKV2IdfDdinxVuKd-14" value="" style="edgeStyle=orthogonalEdgeStyle;rounded=0;orthogonalLoop=1;jettySize=auto;html=1;" edge="1" parent="1">
          <mxGeometry relative="1" as="geometry">
            <mxPoint x="381" y="298" as="sourcePoint" />
            <mxPoint x="381" y="358" as="targetPoint" />
          </mxGeometry>
        </mxCell>
        <mxCell id="h7wWkKV2IdfDdinxVuKd-15" value="sum" style="shape=parallelogram;perimeter=parallelogramPerimeter;whiteSpace=wrap;html=1;fixedSize=1;" vertex="1" parent="1">
          <mxGeometry x="320" y="360" width="120" height="60" as="geometry" />
        </mxCell>
        <mxCell id="h7wWkKV2IdfDdinxVuKd-16" value="Конец" style="ellipse;whiteSpace=wrap;html=1;" vertex="1" parent="1">
          <mxGeometry x="320" y="480" width="120" height="80" as="geometry" />
        </mxCell>
        <mxCell id="h7wWkKV2IdfDdinxVuKd-17" value="" style="edgeStyle=orthogonalEdgeStyle;rounded=0;orthogonalLoop=1;jettySize=auto;html=1;" edge="1" parent="1">
          <mxGeometry relative="1" as="geometry">
            <mxPoint x="380" y="419" as="sourcePoint" />
            <mxPoint x="380" y="479" as="targetPoint" />
          </mxGeometry>
        </mxCell>
        <mxCell id="h7wWkKV2IdfDdinxVuKd-18" value="START&lt;div style=&quot;font-size: 18px;&quot;&gt;Number input: a, b,c&lt;/div&gt;&lt;div style=&quot;font-size: 18px;&quot;&gt;sum = a + b + c&lt;/div&gt;&lt;div style=&quot;font-size: 18px;&quot;&gt;output sum&lt;/div&gt;&lt;div style=&quot;font-size: 18px;&quot;&gt;END&lt;/div&gt;&lt;div style=&quot;font-size: 18px;&quot;&gt;&lt;br style=&quot;font-size: 18px;&quot;&gt;&lt;/div&gt;" style="whiteSpace=wrap;html=1;aspect=fixed;fillColor=#dae8fc;strokeColor=#6c8ebf;align=left;fontStyle=1;fontSize=18;" vertex="1" parent="1">
          <mxGeometry x="600" width="190" height="190" as="geometry" />
        </mxCell>
      </root>
    </mxGraphModel>
  </diagram>
</mxfile>
